<svg width="513" height="512" viewBox="0 0 513 512" fill="none" xmlns="http://www.w3.org/2000/svg">
<path d="M427.333 512H85.9994C38.8698 512 0.666016 473.796 0.666016 426.667V85.3333C0.666016 38.2037 38.8698 0 85.9994 0H427.333C474.462 0 512.666 38.2037 512.666 85.3333V426.667C512.666 473.796 474.462 512 427.333 512Z" fill="white"/>
<path d="M256.668 456.536C251.958 456.536 248.135 452.713 248.135 448.002V256.002C248.135 251.292 251.958 247.469 256.668 247.469H448.668C453.387 247.469 457.201 251.292 457.201 256.002C457.201 297.807 453.31 340.32 445.639 382.347C439.768 414.517 415.183 439.093 383.013 444.964C340.995 452.644 298.481 456.536 256.668 456.536ZM265.201 264.536V439.418C303.235 438.923 341.797 435.151 379.941 428.179C405.054 423.588 424.254 404.397 428.845 379.283C435.808 341.122 439.58 302.56 440.067 264.536H265.201Z" fill="#FFA96B"/>
<path d="M376.134 366.935H307.867C303.148 366.935 299.334 363.112 299.334 358.401C299.334 353.691 303.148 349.868 307.867 349.868H376.134C380.853 349.868 384.667 353.691 384.667 358.401C384.667 363.112 380.853 366.935 376.134 366.935ZM376.134 332.801H307.867C303.148 332.801 299.334 328.978 299.334 324.268C299.334 319.557 303.148 315.734 307.867 315.734H376.134C380.853 315.734 384.667 319.557 384.667 324.268C384.667 328.978 380.853 332.801 376.134 332.801Z" fill="#FFA96B"/>
<path d="M256.668 256.003H423.068C423.068 216.229 419.356 175.789 412.051 135.785C408.749 117.72 394.942 103.913 376.877 100.611C336.872 93.3061 296.433 89.6027 256.668 89.6027C216.902 89.6027 176.463 93.3061 136.459 100.619C118.393 103.922 104.587 117.729 101.284 135.794C93.971 175.798 90.2676 216.237 90.2676 256.003C90.2676 295.768 93.971 336.207 101.284 376.212C104.587 394.277 118.393 408.084 136.459 411.386C176.463 418.699 216.902 422.403 256.668 422.403V256.003Z" fill="#FFBDCC"/>
<path d="M256.668 264.536H64.6681C59.9577 264.536 56.1348 260.713 56.1348 256.002C56.1348 214.189 60.026 171.676 67.6974 129.658C73.5684 97.487 98.1529 72.911 130.315 67.0401C137.295 65.7686 144.276 64.591 151.264 63.5329C155.889 62.8075 160.276 66.0246 160.984 70.6838C161.692 75.343 158.492 79.695 153.833 80.4033C147.015 81.4443 140.197 82.5793 133.387 83.8251C108.273 88.4161 89.082 107.608 84.491 132.721C77.5193 170.882 73.7476 209.436 73.2526 247.469H248.135V72.5867C227.911 72.8513 207.482 74.0289 187.284 76.1195C182.582 76.6401 178.409 73.1926 177.923 68.5078C177.436 63.823 180.849 59.6246 185.534 59.1467C209.154 56.7062 233.091 55.4689 256.668 55.4689C261.379 55.4689 265.201 59.2918 265.201 64.0022V256.002C265.201 260.713 261.379 264.536 256.668 264.536Z" fill="#FF6684"/>
<path d="M448.668 264.536H256.668C251.958 264.536 248.135 260.713 248.135 256.002V64.0022C248.135 59.2918 251.958 55.4689 256.668 55.4689C298.481 55.4689 340.995 59.3601 383.013 67.0315C415.183 72.9025 439.759 97.487 445.639 129.649C453.31 171.684 457.201 214.197 457.201 256.002C457.201 260.713 453.387 264.536 448.668 264.536ZM265.201 247.469H440.075C439.58 209.444 435.817 170.882 428.854 132.721C424.263 107.608 405.063 88.4161 379.949 83.8251C341.797 76.8534 303.235 73.0817 265.201 72.5867V247.469Z" fill="#FF6684"/>
<path d="M256.668 456.537C214.855 456.537 172.342 452.646 130.324 444.974C98.1529 439.103 73.5769 414.519 67.706 382.356C60.026 340.33 56.1348 297.817 56.1348 256.003C56.1348 251.293 59.9577 247.47 64.6681 247.47H256.668C261.379 247.47 265.201 251.293 265.201 256.003V448.003C265.201 452.714 261.379 456.537 256.668 456.537ZM73.2526 264.537C73.7476 302.57 77.5193 341.123 84.491 379.284C89.082 404.398 108.273 423.589 133.387 428.18C171.548 435.152 210.102 438.924 248.135 439.419V264.537H73.2526ZM205.468 179.203H137.201C132.491 179.203 128.668 175.38 128.668 170.67C128.668 165.96 132.491 162.137 137.201 162.137H205.468C210.179 162.137 214.001 165.96 214.001 170.67C214.001 175.38 210.179 179.203 205.468 179.203Z" fill="#FF6684"/>
<path d="M171.339 213.336C166.628 213.336 162.805 209.513 162.805 204.803V136.536C162.805 131.826 166.628 128.003 171.339 128.003C176.049 128.003 179.872 131.826 179.872 136.536V204.803C179.872 209.513 176.049 213.336 171.339 213.336ZM376.139 179.203H307.872C303.153 179.203 299.339 175.38 299.339 170.67C299.339 165.959 303.153 162.136 307.872 162.136H376.139C380.858 162.136 384.672 165.959 384.672 170.67C384.672 175.38 380.858 179.203 376.139 179.203ZM205.472 384.003C203.288 384.003 201.103 383.167 199.439 381.503L131.172 313.236C127.836 309.9 127.836 304.507 131.172 301.17C134.509 297.833 139.902 297.833 143.238 301.17L211.505 369.437C214.842 372.773 214.842 378.166 211.505 381.503C209.841 383.167 207.657 384.003 205.472 384.003Z" fill="#FF6684"/>
<path d="M137.205 384.003C135.021 384.003 132.836 383.166 131.172 381.502C127.836 378.166 127.836 372.773 131.172 369.436L199.439 301.17C202.776 297.833 208.169 297.833 211.505 301.17C214.842 304.506 214.842 309.899 211.505 313.236L143.238 381.502C141.574 383.166 139.39 384.003 137.205 384.003Z" fill="#FF6684"/>
</svg>
