<svg width="513" height="512" viewBox="0 0 513 512" fill="none" xmlns="http://www.w3.org/2000/svg">
<path d="M256.787 512C398.172 512 512.787 397.385 512.787 256C512.787 114.615 398.172 0 256.787 0C115.402 0 0.787109 114.615 0.787109 256C0.787109 397.385 115.402 512 256.787 512Z" fill="#1D67B1"/>
<path d="M311.67 505.738C316.226 504.831 320.757 503.8 325.258 502.647C333.487 500.375 341.597 497.694 349.558 494.612C357.506 491.518 365.294 488.028 372.893 484.156C380.499 480.281 387.906 476.029 395.087 471.415C402.268 466.809 409.215 461.847 415.901 456.547C422.592 451.239 429.014 445.6 435.141 439.651C441.265 433.703 447.088 427.453 452.588 420.924C458.084 414.392 463.25 407.59 468.066 400.542C472.891 393.497 477.36 386.215 481.457 378.723C485.554 371.234 489.274 363.544 492.603 355.683C495.922 347.826 498.847 339.807 501.366 331.658C503.405 324.849 505.159 317.957 506.624 311.001L354.205 158.583C341.43 145.76 326.248 135.587 309.53 128.65C292.812 121.712 274.888 118.145 256.788 118.154C180.775 118.154 118.941 179.988 118.941 256C118.941 284.495 127.645 311.001 142.513 332.997V333.037C144.994 336.7 147.633 340.224 150.449 343.612V343.651C153.245 347.058 156.258 350.307 159.37 353.418L311.67 505.738Z" fill="#154082"/>
<path d="M256.788 118.154C180.775 118.154 118.941 179.988 118.941 256C118.941 332.013 180.775 393.847 256.788 393.847C332.8 393.847 394.634 332.013 394.634 256C394.634 179.988 332.8 118.154 256.788 118.154ZM256.788 137.847C322.166 137.847 374.941 190.622 374.941 256C374.941 321.379 322.166 374.154 256.788 374.154C241.264 374.175 225.888 371.133 211.542 365.203C197.195 359.273 184.159 350.572 173.18 339.596C162.201 328.621 153.495 315.588 147.56 301.243C141.626 286.899 138.579 271.524 138.594 256C138.594 190.622 191.409 137.847 256.788 137.847ZM246.941 157.578V228.274C235.54 232.389 227.249 243.26 227.249 256C227.249 272.188 240.6 285.539 256.788 285.539C269.528 285.539 280.379 277.248 284.475 265.847H335.517V246.154H284.475C282.991 242.05 280.624 238.321 277.541 235.231C274.459 232.142 270.735 229.766 266.634 228.274V157.578H246.941ZM256.788 246.154C262.341 246.154 266.634 250.447 266.634 256C266.634 261.554 262.341 265.847 256.788 265.847C255.489 265.865 254.201 265.623 252.998 265.135C251.795 264.647 250.702 263.922 249.784 263.004C248.866 262.086 248.141 260.993 247.653 259.79C247.165 258.587 246.923 257.299 246.941 256C246.941 250.447 251.234 246.154 256.788 246.154Z" fill="white"/>
</svg>
