<svg width="536" height="512" viewBox="0 0 536 512" fill="none" xmlns="http://www.w3.org/2000/svg">
<path d="M492.57 428.969H535.952V512H449.176V470.478V428.969H492.57Z" fill="#00ACEA"/>
<path d="M492.57 83.0312H449.176V41.5216V0H535.952V83.0312H492.57Z" fill="#00ACEA"/>
<path d="M492.568 83.0311V428.969H449.173V470.478H87.5622V428.969H44.168V83.0311H87.5622V41.5215H449.173V83.0311H492.568ZM418.864 368.971V143.029H117.871V368.971H418.864Z" fill="#00EFD1"/>
<path d="M418.866 254.378V368.971H117.873V316.547L190.992 265.745C197.171 261.491 204.565 259.363 212.06 259.681C219.555 260 226.742 262.748 232.537 267.511L279.88 307.028C285.246 311.445 291.819 314.142 298.741 314.765C305.664 315.389 312.613 313.91 318.682 310.523L418.866 254.378Z" fill="#00ACEA"/>
<path d="M418.866 143.029V254.378L318.682 310.523C312.613 313.91 305.664 315.388 298.741 314.765C291.819 314.141 285.246 311.445 279.88 307.028L232.537 267.511C226.742 262.748 219.555 260 212.06 259.681C204.565 259.363 197.171 261.491 190.992 265.745L117.873 316.547V143.029H418.866ZM297.557 249.201C313.434 249.201 326.316 236.891 326.316 221.695C326.316 206.499 313.434 194.201 297.557 194.201C281.681 194.201 268.787 206.51 268.787 221.695C268.787 236.879 281.669 249.201 297.557 249.201Z" fill="#FEDB41"/>
<path d="M326.316 221.694C326.316 236.891 313.434 249.2 297.558 249.2C281.681 249.2 268.787 236.891 268.787 221.694C268.787 206.498 281.669 194.2 297.558 194.2C313.446 194.2 326.316 206.51 326.316 221.694Z" fill="#F4B844"/>
<path d="M44.1695 428.969H87.5637V470.478V512H0.787109V428.969H44.1695Z" fill="#00ACEA"/>
<path d="M87.5637 41.5216V83.0312H44.1695H0.787109V0H87.5637V41.5216Z" fill="#00ACEA"/>
</svg>
