<svg width="512" height="512" viewBox="0 0 512 512" fill="none" xmlns="http://www.w3.org/2000/svg">
<path d="M256 512C397.385 512 512 397.385 512 256C512 114.615 397.385 0 256 0C114.615 0 0 114.615 0 256C0 397.385 114.615 512 256 512Z" fill="#324A5E"/>
<path d="M256 376.945V397.102C229.795 397.102 204.8 389.846 183.836 376.945H256Z" fill="#84DBFF"/>
<path d="M256 356.787C311.663 356.787 356.787 311.663 356.787 256C356.787 200.337 311.663 155.213 256 155.213C200.336 155.213 155.212 200.337 155.212 256C155.212 311.663 200.336 356.787 256 356.787Z" fill="#FFD05B"/>
<path d="M256 334.614C299.417 334.614 334.614 299.417 334.614 256C334.614 212.583 299.417 177.386 256 177.386C212.583 177.386 177.386 212.583 177.386 256C177.386 299.417 212.583 334.614 256 334.614Z" fill="#F9B54C"/>
<path d="M283.414 275.754C283.414 260.435 270.916 248.34 256 248.34C249.55 248.34 244.309 243.099 244.309 236.649C244.309 230.199 249.55 224.958 256 224.958C259.225 224.958 262.45 226.167 264.466 228.586C267.288 231.811 272.529 231.811 275.754 228.989C278.979 226.167 278.979 220.926 276.157 217.701C272.932 214.073 268.498 211.654 264.063 210.041V204.397C264.063 199.962 260.435 196.334 256 196.334C251.565 196.334 247.937 199.962 247.937 204.397V210.041C236.649 213.266 228.183 224.151 228.183 236.246C228.183 251.565 240.68 263.66 255.597 263.66C262.047 263.66 267.288 268.901 267.288 275.351C267.288 281.802 262.047 287.043 255.597 287.043C252.372 287.043 249.146 285.833 247.131 283.414C244.309 280.189 239.068 280.189 235.842 283.011C232.617 285.833 232.617 291.074 235.439 294.299C238.665 297.928 243.099 300.347 247.534 301.959V307.603C247.534 312.038 251.162 315.666 255.597 315.666C260.031 315.666 263.66 312.038 263.66 307.603V301.959C275.351 298.734 283.414 288.252 283.414 275.754Z" fill="white"/>
<path d="M396.699 256C396.699 293.493 382.186 328.97 355.578 355.578C328.97 382.186 293.493 396.699 256 396.699H114.495L131.83 414.035C135.862 418.066 135.862 424.113 131.83 428.145C129.814 430.161 127.395 430.967 124.573 430.967C122.155 430.967 119.332 430.161 117.317 428.145L83.049 393.877C79.0175 389.846 79.0175 383.798 83.049 379.767L117.317 345.499C121.348 341.468 127.395 341.468 131.427 345.499C135.458 349.531 135.458 355.578 131.427 359.609L114.495 376.945H256C288.252 376.945 318.488 364.447 341.468 341.468C364.044 318.488 376.945 288.252 376.945 256C376.945 189.48 322.923 135.055 256 135.055H328.164C369.285 160.05 396.699 204.8 396.699 256Z" fill="#FF7058"/>
<path d="M428.548 132.233L394.28 166.501C392.265 168.517 389.846 169.323 387.024 169.323C384.605 169.323 381.783 168.517 379.767 166.501C375.735 162.469 375.735 156.422 379.767 152.391L397.102 135.055H256C189.48 135.055 135.055 189.077 135.055 256C135.055 322.52 189.077 376.945 256 376.945H183.836C142.715 352.353 115.301 307.2 115.301 256C115.301 178.192 178.595 115.301 256 115.301H397.505L380.17 97.9654C376.139 93.9339 376.139 87.8867 380.17 83.8552C384.202 79.8237 390.249 79.8237 394.28 83.8552L428.548 118.123C432.58 122.154 432.58 128.202 428.548 132.233Z" fill="#84DBFF"/>
</svg>
