<svg width="603" height="514" viewBox="0 0 603 514" fill="none" xmlns="http://www.w3.org/2000/svg">
<path d="M601.484 179.938C601.484 80.673 521.811 1 422.546 1C355.934 1 297.159 37.5712 267.118 92.4281C246.221 79.3669 220.098 71.5302 192.67 71.5302C115.609 71.5302 51.6094 134.224 51.6094 212.591C51.6094 287.039 109.078 348.427 183.527 352.345C203.119 400.671 251.445 435.936 307.608 435.936C361.159 435.936 406.873 404.59 429.077 358.876C524.423 356.263 601.484 276.59 601.484 179.938Z" fill="#6F6185"/>
<path d="M432.992 304.014C410.788 351.034 362.461 384.993 306.298 384.993C247.523 384.993 197.891 348.422 176.993 297.483C120.83 293.565 73.81 259.606 52.9121 211.28V212.586C52.9121 287.034 110.381 348.422 184.83 352.34C204.422 400.666 252.748 435.931 308.911 435.931C362.461 435.931 408.176 404.585 430.379 358.871C524.42 356.258 600.174 280.504 602.787 185.157C574.052 253.075 510.052 301.402 432.992 304.014Z" fill="#6F6185"/>
<path d="M601.484 179.938C601.484 80.6731 521.811 1 422.546 1C355.934 1 297.159 37.5712 267.118 92.4281C246.221 79.3669 220.098 71.5302 192.67 71.5302C115.609 71.5302 51.6094 134.224 51.6094 212.591C51.6094 287.039 109.078 348.427 183.527 352.345C203.119 400.671 251.445 435.936 307.608 435.936C361.159 435.936 406.873 404.59 429.077 358.876C524.423 356.263 601.484 276.59 601.484 179.938Z" stroke="white" stroke-miterlimit="10" stroke-linecap="round" stroke-linejoin="round"/>
<path d="M26.7883 513C41.2153 513 52.9106 501.305 52.9106 486.878C52.9106 472.451 41.2153 460.756 26.7883 460.756C12.3614 460.756 0.666016 472.451 0.666016 486.878C0.666016 501.305 12.3614 513 26.7883 513Z" fill="#6F6185" stroke="white" stroke-miterlimit="10" stroke-linecap="round" stroke-linejoin="round"/>
<path d="M135.201 486.881C159.727 486.881 179.609 466.999 179.609 442.473C179.609 417.948 159.727 398.065 135.201 398.065C110.675 398.065 90.793 417.948 90.793 442.473C90.793 466.999 110.675 486.881 135.201 486.881Z" fill="#6F6185"/>
<path d="M135.201 467.292C116.915 467.292 101.242 459.456 90.793 446.395C93.4052 468.599 111.691 486.884 135.201 486.884C158.711 486.884 176.997 468.599 179.609 446.395C169.16 459.456 153.487 467.292 135.201 467.292Z" fill="#6F6185"/>
<path d="M135.201 486.881C159.727 486.881 179.609 466.999 179.609 442.473C179.609 417.948 159.727 398.065 135.201 398.065C110.675 398.065 90.793 417.948 90.793 442.473C90.793 466.999 110.675 486.881 135.201 486.881Z" stroke="white" stroke-miterlimit="10" stroke-linecap="round" stroke-linejoin="round"/>
</svg>
