<svg width="513" height="512" viewBox="0 0 513 512" fill="none" xmlns="http://www.w3.org/2000/svg">
<path d="M256.787 512C398.172 512 512.787 397.385 512.787 256C512.787 114.615 398.172 0 256.787 0C115.402 0 0.787109 114.615 0.787109 256C0.787109 397.385 115.402 512 256.787 512Z" fill="#566476"/>
<path d="M284 215.003L288.494 211.917L289.114 211.584L308.716 198.072C296.319 194.986 282.45 192.651 267.651 191.316L252.232 211.917C263.855 212.334 274.392 213.419 284 215.003Z" fill="white"/>
<path d="M344.26 210.24L341.029 211.975L340.463 212.212L320.834 223.172C340.706 229.48 351.611 236.97 353.226 241.149C350.076 249.586 310.737 270.56 236.744 270.56C162.67 270.56 123.331 249.586 120.261 241.149C123.089 233.422 156.369 215.129 219.053 212.212L234.644 191.316C159.681 191.711 99.2589 213.867 99.2589 241.149C99.2589 253.45 111.537 264.646 131.893 273.32C135.044 274.739 138.356 276.001 141.829 277.184C157.5 282.624 176.806 286.724 198.212 289.011C201.605 289.326 205.079 289.642 208.552 289.957C217.68 290.667 227.131 290.982 236.744 290.982C246.356 290.982 255.807 290.667 264.935 289.957C268.49 289.721 271.882 289.405 275.275 289.011C296.762 286.724 315.987 282.624 331.658 277.184C335.213 276.001 338.525 274.739 341.594 273.399C361.546 264.883 373.744 254.002 374.229 242.017C374.309 241.701 374.309 241.465 374.309 241.149C374.229 229.558 363.081 218.756 344.26 210.24ZM131.409 373.065V281.599C130.439 281.205 129.47 280.811 128.581 280.416C113.88 274.187 104.752 267.406 99.1781 260.862V336.084C99.0974 350.119 111.295 363.051 131.409 373.065ZM141.264 377.48C141.344 377.559 141.425 377.559 141.506 377.559C141.425 377.401 141.344 377.323 141.264 377.48ZM198.132 296.738C197.889 296.738 197.647 296.738 197.324 296.659C176.806 294.452 157.662 290.588 141.748 285.305V377.717C157.419 384.025 176.645 388.677 198.132 391.279V296.738ZM236.663 298.709C227.05 298.709 217.519 298.394 208.471 297.684V391.91C208.471 392.067 208.471 392.225 208.391 392.383C217.519 393.171 226.97 393.566 236.663 393.566C246.276 393.566 255.727 393.171 264.855 392.383C264.774 392.225 264.774 392.067 264.774 391.91V297.684C255.807 298.315 246.356 298.709 236.663 298.709ZM331.578 285.305C315.745 290.588 296.601 294.53 276.002 296.659C275.76 296.738 275.517 296.738 275.194 296.738V391.279C296.601 388.677 315.907 384.025 331.578 377.717V285.305ZM344.664 280.416C343.775 280.811 342.887 281.205 341.998 281.599V373.065C362.112 363.051 374.229 350.119 374.229 336.005V260.783C368.655 267.249 359.527 274.187 344.664 280.416Z" fill="white"/>
<path d="M344.901 379.551C341.668 381.138 338.111 382.726 334.312 384.154C317.985 390.661 297.858 395.501 276.195 398.12C272.72 398.517 269.244 398.913 265.607 399.151C256.392 399.945 246.773 400.421 236.831 400.421C226.97 400.421 217.27 400.024 207.975 399.151C204.418 398.834 200.862 398.517 197.467 398.12C175.805 395.501 155.678 390.661 139.269 384.154C135.39 382.726 131.914 381.138 128.6 379.472C113.889 372.33 104.755 363.125 99.1777 355.587V365.744C99.1777 397.247 160.851 422.719 236.831 422.719C312.811 422.719 374.404 397.247 374.404 365.744V355.666C368.907 363.046 359.693 372.33 344.901 379.551ZM217.109 224.735L216.381 224.815C213.067 225.132 210.4 227.195 209.107 230.29C208.056 232.988 208.541 236.083 210.319 238.384C212.016 240.526 214.603 241.796 217.27 241.796C217.594 241.796 217.836 241.796 218.16 241.717C220.584 241.479 222.686 240.288 224.141 238.384C225.596 236.479 226.162 234.02 225.758 231.639L225.596 230.925L329.624 104.279C331.241 102.295 331.968 99.9144 331.645 97.3752C331.322 94.9153 330.028 92.6934 328.008 91.1857C326.391 89.9161 324.37 89.2812 322.269 89.2812C321.945 89.2812 321.622 89.2813 321.299 89.3606C318.631 89.5987 316.206 91.027 314.671 93.0902L217.755 224.18L217.109 224.735ZM413.041 152.049C411.343 149.271 408.353 147.605 404.958 147.605C403.179 147.605 401.482 148.081 399.946 149.033L317.58 200.692L317.176 200.93L292.604 216.324L292.2 216.562L260.191 236.638L259.464 236.4C258.655 236.162 257.766 236.003 256.958 236.003C254.533 236.003 252.27 237.035 250.492 238.86C248.552 240.923 247.824 244.177 248.632 246.795C249.764 250.525 253.078 253.064 257.039 253.064C258.655 253.064 260.191 252.667 261.484 251.874C263.586 250.604 265.041 248.541 265.445 246.24L265.607 245.526L337.707 205.135L338.111 204.897L409.646 164.825C411.828 163.634 413.445 161.571 414.091 159.19C414.738 156.731 414.334 154.191 413.041 152.049Z" fill="white"/>
</svg>
