<svg width="513" height="512" viewBox="0 0 513 512" fill="none" xmlns="http://www.w3.org/2000/svg">
<path fill-rule="evenodd" clip-rule="evenodd" d="M480.787 144C480.787 91.016 437.771 48 384.787 48H128.787C75.8031 48 32.7871 91.016 32.7871 144C32.7871 196.984 75.8031 240 128.787 240H384.787C437.771 240 480.787 196.984 480.787 144ZM480.787 368C480.787 315.016 437.771 272 384.787 272H128.787C75.8031 272 32.7871 315.016 32.7871 368C32.7871 420.984 75.8031 464 128.787 464H384.787C437.771 464 480.787 420.984 480.787 368Z" fill="#3FC1C9"/>
<path d="M128.787 240C181.806 240 224.787 197.019 224.787 144C224.787 90.9807 181.806 48 128.787 48C75.7678 48 32.7871 90.9807 32.7871 144C32.7871 197.019 75.7678 240 128.787 240Z" fill="#EAEAEA"/>
<path d="M384.787 464C437.806 464 480.787 421.019 480.787 368C480.787 314.981 437.806 272 384.787 272C331.768 272 288.787 314.981 288.787 368C288.787 421.019 331.768 464 384.787 464Z" fill="#364F6B"/>
</svg>
