<svg width="365" height="512" viewBox="0 0 365 512" fill="none" xmlns="http://www.w3.org/2000/svg">
<path d="M362.657 341.641C366.84 365.805 364.388 390.908 356.251 413.736C348.196 436.667 334.108 456.934 315.873 472.505C297.685 488.161 275.706 499.55 251.46 505.993C227.199 512.414 200.766 513.979 173.733 509.267C146.734 504.767 119.44 493.664 95.4829 478.667C71.789 463.473 50.1509 445.497 36.0396 425.954C28.9531 416.176 23.4626 405.874 20.2563 394.711C16.9439 383.579 16.4524 371.6 19.1066 359.71C20.7248 352.17 24.6579 345.075 29.4903 340.417C34.368 335.645 39.934 332.967 45.0545 332.34C55.4831 331.054 62.1457 337.286 65.8894 344.184C69.7763 351.24 72.1665 359.347 76.3338 364.309C80.3575 369.633 85.2353 370.283 86.0067 371.698C85.6738 377.27 87.2918 383.495 90.575 388.388C93.7433 393.409 98.0615 397.554 102.599 401.1C111.811 408.073 121.327 413.731 130.81 418.064C149.603 426.859 169.175 429.983 185.558 425C201.742 420.371 214.697 408.089 216.475 392.715C217.466 385.212 216.021 377.514 212.489 370.98C209.048 364.348 202.779 359.372 195.919 356.702C187.419 353.419 178.48 353.344 170.788 353.662L159.883 354.32L157.394 354.471L148.463 353.186L143.797 352.49L138.193 351.311C134.426 350.478 130.759 349.737 126.908 348.762C111.178 344.482 93.9723 338.152 76.8819 327.504C59.0417 316.395 43.4386 301.163 31.8227 284.622C8.55133 251.188 -1.99015 212.435 0.308776 172.089C1.48844 152.056 6.5405 130.864 15.3889 111.564C24.0405 92.4979 35.9221 75.4667 49.7085 61.036C77.442 32.2137 112.199 12.9816 151.239 4.37673C156.156 3.37063 161.131 2.53884 166.115 1.74475C171.175 1.1549 176.265 0.640337 181.378 0.26944C186.535 0.0958344 191.776 -0.0554747 196.926 0.0198295C201.971 0.239459 207.076 0.451424 212.09 0.942984C232.184 2.92455 251.547 7.87045 269.569 15.0928C305.629 29.636 336.652 52.793 361.104 82.954C368.789 91.7266 363.163 106.074 349.193 119.816C335.346 133.7 313.602 147.14 291.014 158.989C268.424 170.84 245.092 181.497 228.077 189.807C211.007 197.945 200.276 204.101 200.313 202.589C198.876 197.998 195.147 192.961 191.622 189.792C189.861 188.167 188.219 186.934 186.828 185.966C186.48 185.732 186.162 185.611 185.814 185.286C185.549 185.127 185.36 184.998 185.111 184.696C184.808 184.589 184.49 184.438 184.143 184.181C183.756 184.143 183.356 183.963 182.91 183.789C179.272 182.79 173.609 183.879 170.204 185.255L166.151 186.814C165.281 186.889 164.397 186.904 163.429 188.424C161.425 191.185 161.168 197.038 161.5 200.048C161.705 201.666 161.425 202.4 161.577 203.383C162.514 204.873 165.365 207.187 170.228 209.637L174.622 211.399L176.869 212.33L180.166 213.283C182.541 213.941 184.166 214.515 187.161 215.249L200.766 217.948C218.819 221.502 236.818 224.845 252.973 230.102C285.991 240.047 310.865 255.868 331.272 277.112C335.038 281.74 339.039 286.096 342.193 291.315L347.207 298.818L351.473 306.842C356.88 317.747 360.532 329.588 362.657 341.641Z" fill="#A4D792"/>
</svg>
