      <svg width="42" height="40" viewBox="0 0 92 90" fill="none" xmlns="http://www.w3.org/2000/svg">
            <path
              d="M43.7977 89.6119V14.2843L22.5246 0L0 12.9239V41.4924L21.8989 55.0965L36.2896 46.2539L27.53 55.0965V78.2234L36.2896 89.6119H43.7977Z"
              fill="#272727"
            />
            <path
              d="M20.8707 9.52283L33.5266 17.4665V33.3538L20.8707 41.2974L8.21472 33.3538V17.4665L20.8707 9.52283Z"
              fill="white"
            />
            <path
              d="M20.8707 9.52283L33.5266 17.4665V33.3538L20.8707 41.2974L8.21472 33.3538V17.4665L20.8707 9.52283Z"
              fill="#10B981"
              fillOpacity="0.85"
            />
            <path
              d="M47.5519 89.6119V14.2843L68.8251 0L91.3496 12.9239V41.4924L69.4507 55.0965L55.06 46.2539L63.8196 55.0965V78.2234L55.06 89.6119H47.5519Z"
              fill="#272727"
            />
            <path
              d="M70.4789 9.52283L57.823 17.4665V33.3538L70.4789 41.2974L83.1349 33.3538V17.4665L70.4789 9.52283Z"
              fill="white"
            />
            <path
              d="M70.4789 9.52283L57.823 17.4665V33.3538L70.4789 41.2974L83.1349 33.3538V17.4665L70.4789 9.52283Z"
              fill="#10B981"
              fillOpacity="0.85"
            />
          </svg>